<?xml version="1.0" encoding="UTF-8"?>
<!DOCTYPE svg PUBLIC "-//W3C//DTD SVG 1.1//EN" "http://www.w3.org/Graphics/SVG/1.1/DTD/svg11.dtd">
<!-- Creator: CorelDRAW -->
<svg xmlns="http://www.w3.org/2000/svg" xml:space="preserve" width="8.5in" height="11in" style="shape-rendering:geometricPrecision; text-rendering:geometricPrecision; image-rendering:optimizeQuality; fill-rule:evenodd; clip-rule:evenodd"
viewBox="0 0 8.5 11"
 xmlns:xlink="http://www.w3.org/1999/xlink">
 <defs>
  <style type="text/css">
   <![CDATA[
    .str0 {stroke:#DA251D;stroke-width:0.0555551;stroke-linejoin:round}
    .fil0 {fill:#DA251D}
    .fil1 {fill:white;fill-rule:nonzero}
   ]]>
  </style>
 </defs>
 <g id="Layer_x0020_1">
  <metadata id="CorelCorpID_0Corel-Layer"/>
  <g id="_335369848">
   <path id="_335363416" class="fil0" d="M1.61185 4.51931l2.05528 0c0.0178031,0.213953 0.0917559,0.342028 0.210539,0.460283 0.167256,0.166504 0.202476,0.164748 0.460283,0.224815l0 1.91255 -0.0713661 0c-1.37583,0 -2.65474,-1.21624 -2.65474,-2.59765zm2.84029 2.59765l0 -1.91255c0.432024,-0.100654 0.570169,-0.238803 0.670823,-0.670827l1.99819 0c0,1.37573 -1.2878,2.58338 -2.66901,2.58338zm-0.114181 -3.33983l0 0.228362 0.114181 0 0 -0.228362c0.418512,0.0975 0.544776,0.223764 0.642276,0.642276l-0.256909 0 0 0.114181 0.256909 0c-0.0975,0.418516 -0.223764,0.544776 -0.642276,0.64228l0 -0.299728 -0.114181 0 0 0.299728c-0.360307,-0.0839449 -0.608469,-0.250272 -0.642276,-0.656551l0.299728 0 0 -0.114181 -0.285457 0c0,-0.38422 0.306299,-0.553055 0.628004,-0.628004zm0.114181 -1.96965c1.39633,0 2.66901,1.20994 2.66901,2.61192l-1.99819 0c-0.0173228,-0.208177 -0.102205,-0.337748 -0.217642,-0.453181 -0.160772,-0.160776 -0.205602,-0.159961 -0.453181,-0.217642l0 -1.9411zm-2.84029 2.59765c0,-1.41951 1.28707,-2.59765 2.72611,-2.59765l0 1.9411c-0.21674,0.0504961 -0.290996,0.0538268 -0.431776,0.196232 -0.0852362,0.0862244 -0.224776,0.242571 -0.224776,0.403228l0 0.0570906 -2.06956 0zm-0.884913 0.114181l0.770732 0c0,1.46193 1.33067,2.71183 2.79747,2.71183l0.0428189 0 0 0.870638 0.114181 0 0 -0.870638c1.45465,0 2.7832,-1.25781 2.7832,-2.71183l0.842098 0 0 -0.114181 -0.842098 0c0,-1.45479 -1.32813,-2.71183 -2.7832,-2.71183l0 -0.999098 -0.114181 0 0 0.999098c-0.813673,0 -1.54898,0.375531 -1.96641,0.773972 -0.394579,0.376634 -0.873882,1.10951 -0.873882,1.86649l0 0.0713661 -0.770732 0 0 0.114181z"/>
   <path id="_335359888" class="fil1 str0" d="M4.41539 3.85126c0.130146,-0.259563 0.260295,-0.389335 0.520591,-0.389335 0.287378,0 0.520602,0.232563 0.520602,0.519118 0,0.519106 -0.520602,1.03822 -1.04119,1.55734 -0.520598,-0.519118 -1.04119,-1.03823 -1.04119,-1.55734 0,-0.286555 0.23322,-0.519118 0.520594,-0.519118 0.260299,0 0.390453,0.129772 0.520598,0.389335zm0.211488 -0.292008m0.677161 0.0547677m-0.172831 1.14568m-1.43165 0m-0.172839 -1.14568m0.677169 -0.0547677"/>
  </g>
 </g>
</svg>
